<svg xmlns="http://www.w3.org/2000/svg" xmlns:xlink="http://www.w3.org/1999/xlink" width="1000px" height="1000px" viewBox="0 0 1000 1000" zoomAndPan="disable">
    <style type="text/css"><![CDATA[
		background-color: #63d471;
background-image: linear-gradient(315deg, #63d471 0%, #233329 74%);
    ]]></style>
	<polygon class="p4" points="-1125,0 -375,1000 125,1000 -875,0" />
	<polygon class="p3" points="-875,0 125,1000 375,1000 -625,0" />
	<polygon class="p2" points="-625,0 375,1000 625,1000 -375,0" />
	<polygon class="p1" points="-375,0 625,1000 875,1000 -125,0" />
	<polygon class="p0" points="-125,0 875,1000 1125,1000 125,0" />
	<polygon class="p-1" points="125,0 1125,1000 1375,1000 375,0" />
	<polygon class="p-2" points="375,0 1375,1000 1625,1000 625,0" />
	<polygon class="p-3" points="625,0 1625,1000 1875,1000 875,0" />
	<polygon class="p-4" points="875,0 1875,1000 2125,1000 1125,0" />
</svg>